<?xml version="1.0" encoding="UTF-8"?>
<!DOCTYPE svg PUBLIC "-//W3C//DTD SVG 1.1//EN" "http://www.w3.org/Graphics/SVG/1.1/DTD/svg11.dtd">
<!-- Creator: CorelDRAW X7 -->
<svg xmlns="http://www.w3.org/2000/svg" xml:space="preserve" width="131.318mm" height="26.9238mm" version="1.1" style="shape-rendering:geometricPrecision; text-rendering:geometricPrecision; image-rendering:optimizeQuality; fill-rule:evenodd; clip-rule:evenodd"
viewBox="0 0 13132 2692"
 xmlns:xlink="http://www.w3.org/1999/xlink">
 <defs>
  <style type="text/css">
   <![CDATA[
    .fil0 {fill:white}
   ]]>
  </style>
 </defs>
 <g id="Layer_x0020_1">
  <metadata id="CorelCorpID_0Corel-Layer"/>
  <path class="fil0" d="M540 0l1287 0 538 538 -2363 0 538 -538zm2674 2209c0,-74 13,-140 39,-200 25,-60 62,-111 110,-152 49,-42 107,-74 175,-97 69,-23 145,-34 231,-34l466 0 0 -128c0,-97 -32,-172 -95,-226 -64,-54 -155,-81 -275,-81 -87,0 -161,16 -223,48 -62,32 -103,77 -124,134l-256 0c27,-123 95,-221 204,-293 109,-72 244,-108 405,-108 193,0 345,45 455,135 110,90 165,216 165,377l0 1080 -233 0 0 -298 -23 0c-25,100 -82,180 -173,239 -91,58 -202,88 -333,88 -158,0 -283,-44 -376,-131 -92,-87 -139,-205 -139,-353zm572 273c64,0 124,-8 179,-25 55,-17 102,-41 142,-73 40,-31 71,-67 94,-109 23,-42 34,-87 34,-137l0 -213 -461 0c-94,0 -169,25 -223,74 -54,49 -81,118 -81,205 0,87 28,155 83,204 55,50 132,74 233,74zm1205 -1894l256 0 0 512c0,27 0,56 -1,87 -1,31 -2,60 -4,87 -4,32 -7,64 -9,96l23 0c25,-94 74,-168 149,-220 75,-52 168,-78 280,-78 78,0 149,13 212,40 64,26 118,64 162,112 45,48 79,106 104,174 25,67 37,142 37,226l0 1040 -256 0 0 -998c0,-119 -30,-212 -91,-278 -61,-67 -145,-100 -253,-100 -108,0 -194,36 -257,107 -64,71 -96,167 -96,288l0 981 -256 0 0 -2076zm1727 2076l0 -233 568 0 0 -1097 -497 0 0 -234 753 0 0 1331 470 0 0 233 -1294 0zm625 -2175l57 0c55,0 100,16 134,48 34,33 51,74 51,125 0,52 -17,92 -51,123 -34,30 -79,45 -134,45l-57 0c-55,0 -99,-15 -133,-44 -35,-29 -52,-71 -52,-124 0,-51 17,-92 52,-125 34,-32 78,-48 133,-48zm1038 1194c0,-94 13,-180 39,-256 25,-75 61,-139 106,-192 46,-52 101,-92 165,-120 65,-29 137,-43 216,-43 116,0 212,26 287,78 76,52 127,126 151,220l23 0c-2,-32 -4,-64 -6,-96 -4,-29 -6,-58 -7,-90 -1,-31 -1,-59 -1,-84l0 -512 256 0 0 2076 -242 0 0 -270 -23 0c-24,95 -75,168 -151,221 -75,52 -171,78 -287,78 -79,0 -151,-14 -216,-43 -64,-28 -119,-69 -165,-121 -45,-52 -81,-116 -106,-192 -26,-75 -39,-161 -39,-256l0 -398zm623 788c106,0 191,-35 254,-105 64,-70 96,-165 96,-285l0 -398c0,-119 -32,-214 -96,-284 -63,-70 -148,-105 -254,-105 -116,0 -206,34 -270,102 -65,68 -97,164 -97,287l0 398c0,120 33,215 98,285 66,70 155,105 269,105zm1709 222c-195,0 -348,-53 -459,-159 -111,-107 -167,-253 -167,-438l0 -427c0,-186 56,-332 167,-438 111,-106 264,-159 459,-159 195,0 348,53 459,159 111,106 167,252 167,438l0 287 -996 0 0 125c0,120 33,214 98,282 66,68 156,102 272,102 85,0 159,-13 222,-39 62,-27 109,-66 139,-117l256 0c-32,119 -104,213 -215,281 -110,69 -245,103 -402,103zm370 -950l0 -74c0,-117 -32,-208 -97,-273 -64,-64 -155,-97 -273,-97 -117,0 -208,33 -273,97 -64,65 -97,156 -97,273l0 74 740 0zm625 -643l271 0 381 1107c15,43 26,82 34,115 7,33 13,61 17,84 4,28 5,53 5,74l26 0c-2,-21 -1,-46 3,-74 4,-23 8,-51 14,-84 6,-33 16,-72 31,-115l362 -1107 278 0 -560 1564 -290 0 -572 -1564zm-11007 -23l1126 0 538 539 -1664 0 0 -539zm1664 1077l0 -377 -538 0 0 916 538 -539zm-2363 -1077l0 -378 538 0 0 917 -538 -539zm538 1616l1126 0 0 -539 -1664 0 538 539z"/>
 </g>
</svg>
